<svg xmlns="http://www.w3.org/2000/svg" xmlns:xlink="http://www.w3.org/1999/xlink" viewBox="0 0 2732 5464"><defs><style>.cls-1{isolation:isolate;}.cls-2{fill:url(#linear-gradient);}.cls-3{fill:#daceba;}.cls-4{fill:#46455b;}.cls-5{fill:#4f526a;}.cls-6{fill:#b2b0a5;}.cls-7{fill:#aebdb1;}.cls-8{fill:#a1a09a;}.cls-9{fill:#708c89;}.cls-10{fill:#728c8a;}.cls-11{fill:#a3a4a2;}.cls-12{fill:url(#linear-gradient-2);}.cls-13{fill:#352535;}.cls-14{fill:#403347;}.cls-15{fill:#3e3145;}.cls-16{fill:#a8a19b;}.cls-17{fill:#d0bab4;}.cls-18{opacity:0.29;mix-blend-mode:color-burn;}.cls-19{fill:url(#linear-gradient-3);}.cls-20{fill:#5e737a;}.cls-21{fill:url(#linear-gradient-4);}.cls-22{fill:url(#linear-gradient-5);}</style><linearGradient id="linear-gradient" x1="3547.12" y1="4913.02" x2="-878.53" y2="487.37" gradientUnits="userSpaceOnUse"><stop offset="0.32" stop-color="#fccec1"/><stop offset="1" stop-color="#ddefe1"/></linearGradient><linearGradient id="linear-gradient-2" x1="-73.2" y1="2792.89" x2="560.25" y2="2792.89" gradientUnits="userSpaceOnUse"><stop offset="0.02" stop-color="#5e737a"/><stop offset="1" stop-color="#5a6a7a"/></linearGradient><linearGradient id="linear-gradient-3" x1="2110.09" y1="2008.03" x2="2305.93" y2="2008.03" gradientUnits="userSpaceOnUse"><stop offset="0" stop-color="#fccec1"/><stop offset="1" stop-color="#c3e6df"/></linearGradient><linearGradient id="linear-gradient-4" x1="646.66" y1="2926.22" x2="1375.53" y2="2926.22" xlink:href="#linear-gradient-2"/><linearGradient id="linear-gradient-5" x1="1921.37" y1="2855.72" x2="2577.57" y2="2855.72" gradientUnits="userSpaceOnUse"><stop offset="0.02" stop-color="#647980"/><stop offset="0.99" stop-color="#557982"/></linearGradient></defs><g class="cls-1"><g id="Layer_3" data-name="Layer 3"><rect class="cls-2" x="-110.48" y="-280.69" width="2889.54" height="5961.76"/><path class="cls-3" d="M2763.45,233.42c-141.84,1515.81,89.67,3038.19,282.06,4548.42,17.89,140.47,34.65,288-17.41,419.71-61,154.32-205.18,258.42-348.49,342.09C2057.19,5907,1307.55,6047.38,595.82,5933.73,346.08,5893.85,82.6,5811.5-68.08,5608.37-224.27,5397.81-220.59,5113-210.25,4851q37.32-945.71,74.65-1891.42c11.11-281.61,22.17-564.65-11.48-844.46l-10.7,10.67c64.93,79.5,138.4,155.41,230.89,199.92s207.57,52.89,295.38-.25c54.2-32.81,94-85.8,148.37-118.29s137.67-35,169.34,19.89c4.76,8.26,8.29,17.67,15.72,23.65,12.68,10.22,31.18,6.59,46.93,2.43l96.58-25.5c39.39-10.4,80.6-21.79,110-50s41.56-78.87,15-109.73c-14.34-16.64-36.51-24.28-52.92-38.87-50.3-44.71-26.11-128,10.48-184.48a654.59,654.59,0,0,1,272.38-236.44c142.2-65.9,306.79-79.92,439.72-162.94,218-136.19,291.88-414.93,451.23-616.66,38.44-48.68,83.16-94.75,103.79-153.25,16.76-47.48,17.62-102.75,50.43-140.94,41.26-48,113.94-48.57,172.89-71.69,125.5-49.2,206.82-209.36,341.28-199.74"/><path class="cls-4" d="M2685,1308.9l5.12,5.12a1.5,1.5,0,0,0,2.12-2.13l-5.12-5.11a1.5,1.5,0,0,0-2.12,2.12Z"/><path class="cls-5" d="M2675.5,1129c-3.91,90.76-49.64,178.87-121.6,234.31-67.58,52.07-160.88,81.72-194.53,160.11l52.41,38.17c-42.23,75-138.39,101.18-224.43,100.22s-172.21-21.72-257.47-10.06-174.18,70.06-180.35,155.89c80.6-64.53,184.1-99.84,287.33-98,31.72.56,72.8,14.78,70.89,46.44l-50.39,31.73A1497.23,1497.23,0,0,1,1967,1917.62L2168,1824c33.33-15.53,86.25-22.59,94.71,13.19,2.61,11-.93,22.46-4.43,33.24l-51.45,158.21a110,110,0,0,1,52.91,39.53c11-18.85,8.1-44.84-6.89-60.74l191.83-60c29.09-9.11,71.91-11,78.66,18.7,3.14,13.85-4.54,27.62-11.92,39.76l-193.66,318.48L2422,2337.74c12.37,1.6,25.33,3.43,35.38,10.82,23.28,17.1,17.77,56.08-3.33,75.82s-51.36,25.37-79.85,30.16c26.69-26-9.65-71.13-46.4-77.2s-77.79,3.88-109.34-15.93c-52.39-32.9-52-131.49-113.59-137.75a196,196,0,0,0,43-96.13c-24.92-26-68-14.53-101.49-1.23-83.27,33.07-183.29,94.88-165.09,182.61,6.07,29.28,25.79,57,20.09,86.38-9.91,50.94-79.71,57.35-121.26,88.45-48.81,36.55-55.15,106.11-83.7,160-72.91,137.6-276.9,154.2-362.3,284.41-28.2,43-41,95.51-74,135-39.46,47.16-106.77,69-166.42,54.07S985,3051.16,972.52,2991c-146.29-19-301.53-36.76-435.85,24.24-85,38.62-156.17,106.89-246,132.26-56.31,15.9-117.86,14.2-170.27,40.22C-27.31,3261-25.93,3507.39-180.25,3565.42c158.57,281.4,66,631.35,93.16,953.2C326.63,4359.11,773.79,4312.1,1215,4268.42c190.5-18.85,382.3-37.36,573.05-21.27,102.14,8.62,203.66,27.14,306.15,26.83,229.25-.71,455.25-95.48,682.38-64.42-52.06-315.18-104.29-632.4-99.39-951.81,3.76-245.8,41.34-489.88,52.53-735.44,9.07-199,.79-398.39-7.5-597.44l-33.36-801"/><path class="cls-6" d="M792.68,2640.47,536,2772.71c-63,32.47-130.13,69-161.18,132.74-4.07,8.36-7.49,17.32-7.49,26.62,0,12.59,6.2,24.41,7.28,36.95,1.1,12.74-3.19,25.41-9.16,36.72-28.29,53.59-89.44,79-143.79,105.79A945.85,945.85,0,0,0,22,3244c-20.46,17.69-40.89,37.34-49.63,62.93s-1.8,58.51,22.11,71.14C2,3272.77,89.81,3178.74,194.33,3164c27.81-3.91,56.77-2.89,83-12.92,16.45-6.29,31-16.64,45.38-26.79C440.9,3041,573.49,2960.32,718,2966c48,1.87,95.67,13.37,143.5,9.28,63.15-5.39,100.94-39.26,121.17-96.82,7.36-20.93,6.7-37,25.11-52.33,26.51-22.13,57.57-7.18,86.6-18.84,5.18-2.08,10.35-5.25,15.9-4.6,9.38,1.1,14.08,13.16,11,22.1s-11.07,15.11-18.9,20.4c-24.05,16.24-50.26,29.49-72.33,48.35s-40.15,45-40.58,74.07c-.08,5.47.58,11.25,3.84,15.64,9.17,12.33,31.3,5.85,41.53,17.32,3.9,4.37,5.16,10.53,8.68,15.22,10.83,14.45,34.48,6.82,47.29-5.91a93.94,93.94,0,0,0,26.84-75.07c-.65-6.27-1.78-13.21,1.79-18.4,4.88-7.09,16-6.59,23.2-1.89s11.88,12.3,17.75,18.59c14,15,34.34,22.16,53.84,28.66s39.85,13.37,54.21,28.08,20.32,39.85,7.44,55.87c-5.23,6.51-12.75,10.68-20.1,14.65-50.43,27.24-104.46,53.33-161.77,52.08s-117.83-38.83-125.76-95.6c-3.08-22,1.84-44.33,6.73-66,8.47-37.6,11-71.39,14.34-108.73,3.86-43.61,32-88.15,18.3-132.42-8.85-28.61-34.22-49.7-62-60.83s-58.15-13.75-88-16.26c-29.4-2.47-61.64-4.2-85.53,13.1"/><path class="cls-7" d="M963.18,2956.19c-71.36,23.25-144-28.13-218.22-39a205.83,205.83,0,0,0-125.77,21.91c-45.08,24.07-79.51,64.06-122,92.4-61.71,41.14-136.7,55.61-208,76-28.24,8.08-58.22,18.65-75,42.77s-10.66,65.29,17.62,73.25c15.41,4.34,36.75.28,43.47,14.82,5.28,11.41-4.44,24-14.24,31.87a173.85,173.85,0,0,1-81.71,36.2c-14,2.19-32,6-33.81,20.06-1.37,10.38,7.85,18.86,16.47,24.8,70.29,48.36,163.72,61.28,244.5,33.82,30.85-10.48,60.08-26.51,92.23-31.85s69.83,3.22,86.46,31.25c9.15,15.42,10.51,34.46,7.61,52.16C579.29,3518.77,489.17,3562.24,409,3584.5c-8.54,2.37-17.87,5.19-22.7,12.61-13,19.93,16.91,38.66,37.86,49.93,45.51,24.48,70,82.46,55.79,132.16,49,25.63,105.55-17.54,139.4-61.27C693.4,3622.2,741,3509.1,787.7,3397.45q87.88-210,175.79-420"/><path class="cls-7" d="M-54.4,3504.27c28.27-10,57.89-20.21,87.6-16.14s59.12,27.36,59.23,57.35c0,5.48-.91,11-.1,16.42,3.73,25.16,37.48,30.16,62.88,28.82L339.8,3581c21.75-1.15,44.7-2.06,64,8s32.59,35.22,22,54.28c-7.08,12.79-21.94,18.76-35.74,23.56-22.16,7.71-44.82,15-64.45,27.83-52.46,34.36-77.52,104.63-135.9,127.53-45.95,18-97.4.6-143.6-16.78-25.75-9.68-52.5-20-71.14-40.26-26.27-28.51-30.94-70.19-34.31-108.81q-5.82-66.63-11.65-133.26c-.58-6.66-1.06-13.82,2.3-19.6s12.19-8.79,16.87-4"/><path class="cls-7" d="M718.71,3750.61c-14.48-7.19-22.56-23.88-22.86-40s6.06-31.76,14.32-45.65c3.16-5.29,7-10.74,12.81-12.79,4.89-1.72,10.25-.72,15.43-.53,25.85.94,50-22.59,49.7-48.46-.13-12.11-4.84-23.83-5-35.94-.3-30.39,26.72-52.83,49.76-72.63s46.35-48.87,36.15-77.49c-2.1-5.87-5.6-11.65-4.85-17.84.87-7.16,7.09-12.28,12.85-16.62,20.1-15.11,41.19-30.43,65.81-35.61s53.81,2.64,66,24.67c19.41,35.19-13.77,77.45-10.41,117.5a65.69,65.69,0,0,0,27.85,47.92c23.86,16.37,57.3,16,78.39,35.81,25.56,24,20,68.91-3.7,94.7s-59.87,36.13-94.62,40.78-70.43,4.86-103.85,15.47c-15.83,5-31.37,12.41-48,12.59-12.88.14-25.38-4.09-38.15-5.86a101.78,101.78,0,0,0-83.7,27.5"/><path class="cls-7" d="M2702.79,1327.6l-147.89,6c-27.08,1.09-56.75,3.23-76.35,22-9.75,9.31-15.81,21.74-24.12,32.35-20.28,25.91-52.39,39.33-77.32,60.8s-42.23,60.47-22.23,86.6c11.14,14.54,33.22,27,27.25,44.3-33.32-20.7-67.9,37.23-107,33.78-15-1.32-27.31-11.58-40-19.54-31.51-19.7-76.78-24.88-103.27,1.17-10.78,10.6-17.24,25.14-28.77,34.92-22.06,18.72-60.63,11.79-74.79-13.45s0-61.76,27.51-70.83c-46.13-28.1-107.18-29.82-154.81-4.35-4.19,13.71,16.11,19.76,30.12,22.8,25,5.42,46.43,25,54.13,49.36,3.64,11.53,4.45,24.06,10.09,34.75,12.23,23.17,41.58,29.68,64.25,42.79s38.89,48.72,17.08,63.23c-18.71,12.44-55.89,2.12-57.66,24.51l23.78,19.36c-9.7,22-36.65,28.87-58,39.89s-40.16,39.9-23.53,57.24,45,.72,63.23-15c79.94-68.92,186.7-122.51,288.73-95.49,25.54,6.76,53.4,18.22,77,6.37,16.55-8.3,25.84-25.86,36.13-41.26,63.73-95.45,206.84-126.42,304.34-65.85q-1.08-147.33-2.15-294.66c-.12-16.54-.44-33.87-8.5-48.31s-26.61-24.47-41.54-17.37"/><path class="cls-7" d="M1556.52,2176.66c-53.86,15.79-109.82-14.82-165.9-17.24-94.42-4.08-172.49,70.38-231.66,144.07-19.42,24.2-37.6,61.72-14.87,82.84,14.25,13.24,36.68,10.71,55.54,5.92,107-27.2,200.88-99.42,310.61-111.79,19.12-2.16,39.82-2.06,55.86,8.56s23.93,35.15,11.35,49.7c-11.62,13.44-38.31,20.81-32.37,37.56,2,5.52,7.29,9,11.71,12.81,25.41,22.12,22.9,64.37,4.1,92.32s-49.34,45.26-78.29,62.49c-85.6,50.94-172.31,117.52-197.27,213.95,33.08,25.34,79.79-1.37,111.58-28.32,102.65-87,197.17-183.07,291.54-279,10.4-10.58,21-21.41,27.44-34.77,9.77-20.22,9-43.74,13.7-65.69,20.48-94.94,140.17-150.28,144.47-247.3,1-23.7-7.35-50-28.23-61.28-29.18-15.74-64.09,4.69-90.47,24.77-72.69,55.32-151.33,117.23-242.63,114.63"/><path class="cls-7" d="M2131.06,1833.9a288.4,288.4,0,0,1,107.45-7.93c15.39,1.78,34.42,9,34.47,24.51.05,16.77-21.21,23.06-35.17,32.34-27.45,18.24-27.62,65.32-.31,83.77,29.34,19.81,70.42,4.69,103.52,17.26a96.35,96.35,0,0,1-81.42,10.67c-21.75-7.15-41.25-22.21-64.1-23.64-22.6-1.41-43.45,10.76-64.45,19.24-10.83,4.37-24.3,7.45-33.32,0-12.08-9.93-6.13-30,4.1-41.78s24.29-21.89,27.61-37.18c2.4-11.08-1.52-22.45-5.22-33.17s-7.29-22.29-4.24-33.22,15.65-19.86,25.83-14.85"/><path class="cls-8" d="M2387.66,830.83A78.36,78.36,0,0,1,2324.14,854c-6.14-.65-12.64-2-18.29.52-14,6.22-11.16,29.3-23.82,38-7.58,5.19-19.26,3.95-24.57,11.45-7.65,10.8,6.45,23.84,18.81,28.56,69.13,26.37,148,12.83,215.59-17.26,8.78-3.91,17.79-8.17,27.4-8.3s20.09,5.2,22.44,14.53c3.19,12.63-9,27.4-1.37,38,7.08,9.85,22.67,4.36,32.39-2.9,14-10.46,28.6-23.7,46-22.23,17.24,1.45,31.72,17.43,48.9,15.43,18.09-2.1,27.32-28.57,14.46-41.47-8.1-8.12-20.56-9.52-31-14.32s-19.64-17.75-13-27.12c-13.67-10.12-32.31,14.12-44,5.29-23.21-17.51,9-24.77,15.55-35.18,11.46-18.11,14.51-5.2,16.82-26.5.92-8.54-16-18.9-15.58-30.21.68-18.11,51.39-60.43,8.83-65.79-17.49-2.21-44.61,30.7-58.3,39.66-29.16,19.1-60.33,36.34-96.06,37.47-15.53.5-31.79-2-46.09,4.09-21.26,9-32.6,34.66-54.66,41.5"/><path class="cls-7" d="M2277.17,1132.6c-27,4.68-37.11-41.57-64.25-45.66-26.88-4-38.43,33-59.59,50-12.86,10.36-30.11,13.2-44.71,20.92-27.18,14.37-42.3,43.65-57.81,70.2a634.07,634.07,0,0,1-271.52,250.13c22.9,25.13,65,15.19,93.44-3.44s54.61-44.78,88.42-48.36c9.72,5.44,6.38,20.67-.89,29.11s-17.59,15.62-19.25,26.64c-2.81,18.55,20.82,30.07,39.53,28.78,53.59-3.69,93.67-56.91,147.19-61.5,16.69-1.43,33.52,2.08,50.2.59,34.5-3.09,65.63-29.74,74-63.35,5.39-21.65,2.76-46.73,17.12-63.8,15.24-18.12,47.06-23.8,50.28-47.26,2-14.22-8.57-26.75-13.64-40.18-6.65-17.65-3.81-37.3-5.89-56s-12.51-39.59-31.19-42.23"/><path class="cls-9" d="M942.13,2033.8c7.58-39.15,36.08-73.61,73.11-88.39,9.48-3.79,22.71-5.13,27.69,3.78,6.92,12.37-10.48,30.37-.72,40.65,10,10.49,36.87-1.52,37.54,12.93.21,4.58-3.55,8.27-7.1,11.18a212.19,212.19,0,0,1-55.06,32.7c-3.28,1.33-6.77,2.6-10.28,2.16-4.81-.61-8.58-4.23-12.5-7.09a46.45,46.45,0,0,0-43-5.79"/><path class="cls-10" d="M1250.29,1769c1.69-15.78-6.34-25-12.27-25.13s-14-3.48-14.39-19.9c-.19-7.43,1.51-14.11,3.21-19.88,12-41,27.93-73.1,45.69-92.27l1.33,23.79,20.1,2.55-15.85,46.48c6.63-3.5,16.67,1.56,15.45,20a50.53,50.53,0,0,1-2.32,11.54c-9.72,32.22-25.42,49.78-40.48,45.27"/><path class="cls-11" d="M330.45,3082.89a1435.59,1435.59,0,0,1,278.06-167c17.24-7.86,35.25-15.82,47.57-30.2s17-37.33,5.16-52.12c-3.79-4.74-8.89-8.24-13.17-12.54-22.16-22.26-16.49-62.22,5.2-84.94s54.34-31.34,85.63-34.09,63.08-.68,93.92-6.64c44.69-8.64,85.58-33.82,131-37.42s99.66,29.8,91.53,74.58c-2.87,15.81-13,29.32-24.32,40.74-55.51,56.1-138.8,72.26-207.73,110.7-8.4,4.69-17.83,12.36-15.68,21.73,2.61,11.41,18.63,12.23,27.65,19.69,10.17,8.4,9.65,25,2.47,36.07s-19.16,17.93-30.68,24.37L696.3,3047.67c-38.63,21.59-77.74,43.38-120.45,54.95-80,21.65-164.71,5.73-246-10.28"/><path class="cls-4" d="M2670.34,1351.89a339.68,339.68,0,0,0-214.09,71.67c-24.78,19.44-47.63,43.77-55.82,74.18-5.5,20.44-4,42.19-8.77,62.8-16.85,72.57-104.37,105.77-178.71,100.81S2067.47,1626,1993,1623.53,1832.3,1661.08,1822.75,1735c66.21,61.66,186.7-111.21,242.67-40.13,17.92,22.75,16.62,64.05,44.82,70.65-81.53,22.77-145.91,97.55-156.3,181.56a896.76,896.76,0,0,1,288.64-145.79A730,730,0,0,1,2192,1993.2l259.1-37.48c33.71-4.88,81,.17,84,34.11,1.38,15.76-9,29.89-18.77,42.31l-163.63,207.27c-9.77,12.38-20,25.9-20.61,41.66-1.24,31,34.06,50.39,64.85,54.62s65,2.08,89.36,21.35c-2.53,70.8-80.16,128.48-148.68,110.46l37.47-76.85c-62-49-168.24-20.66-197.58,52.77-46.34-42.14-32.54-130.89,24.41-157a400.56,400.56,0,0,1-129.37-40.76l88.65-96.88c-100.55-21.84-212.54,29.24-262,119.49a210.77,210.77,0,0,0,130.11-17.73c-11.24,42.19-48.23,76.38-91.18,84.28,33,47.74,61,123.89,11.32,153.9-17.79,10.75-40.13,10.29-59.49,17.88-51.31,20.12-68.14,89.3-118,112.81-43.14,20.34-101.6-8.11-112.21-54.61s29.72-97.5,77.41-97.88c-42,5.41-59.92-61.18-31.32-92.35s76-34,118.26-34.57l-39.76-52.42c32.06-31.7,65.13-64.94,80.1-107.47s5.94-97.13-32.47-120.75c-43.45-26.71-100.48-3.1-140.75,28.19s-77.46,71.56-127.45,81.65c-35.41,7.14-72.06-2.23-108.12,0-73.57,4.62-134.69,55.88-190,104.62-23,20.3-48,45-46.7,75.63,2,45.82,63.3,67,106.37,51.25s73.86-53.14,110.22-81.09,89.27-46.34,126.8-20c39.19,27.55,37.62,87.27,18.76,131.31s-50.61,83.05-60.17,130a280.16,280.16,0,0,0-184.14,58.64c26.05-19.09,37,41.5,10.4,59.85s-68.17,35.32-60.34,66.65l72.37,52.52a162.74,162.74,0,0,0-56.66,62.26c18.46,4.09,31.65,24.39,27.9,42.91-1.75,8.65-6.54,16.33-11.24,23.79-41.1,65.19-87.58,134.44-160.1,160.51s-173.42-20.87-169-97.8c-162-33.35-340.61-57.55-484.36,24.23-82.6,47-165.66,129.7-256,100.34.29,94.9,96.53,177.61,190.39,163.62,50.22-7.49,96.64-37.85,147.36-35.45,50.18,2.39,96.46,41,107.84,89.89s-13.12,104-57.09,128.25L676,3548.56c-97.72,73.61-217,111.4-333.82,147.91-88.34,27.61-203.36,47.19-257.29-28C58.83,3632.09,56.7,3583.32,33.64,3545s-89.42-56.5-107.7-15.69c-6.26,14-4.15,30.1-2,45.27,90.41,644.09,9.66,1300.64,65.27,1948.66,1.17,13.68,2.5,27.69,8.42,40.07,18.77,39.25,71.5,44.55,115,44.4L2688,5598.86c34.21-.12,80.23-11.53,79.23-45.73"/><path class="cls-6" d="M671.58,2368.82c32.62-25.53,74.93-52.42,112.43-34.8,13,6.12,23.23,17,35.71,24.14,25.68,14.75,58.56,12.1,85.57,0s49.27-32.66,70.38-53.43c20.85-20.5,51.33-43.16,76-27.53,16,10.11,19.79,33.11,12.85,50.7s-22.07,30.6-37.74,41.19a270.69,270.69,0,0,1-86,38.27c-28.68,7.12-58.44,9.51-86.74,18s-56.16,24.51-69.73,50.75c-2.86,5.52-5.27,11.7-10.37,15.27-5.34,3.73-12.35,3.7-18.86,3.54l-108-2.76c-5.83-.15-12-.39-16.9-3.52-6-3.86-8.83-11.2-10.46-18.18-13.09-56.2,33.12-118.47,90.69-122.23"/><path class="cls-6" d="M38.85,2551.71a1.5,1.5,0,0,0,0-3,1.5,1.5,0,0,0,0,3Z"/><path class="cls-12" d="M7.85,2565.67q50.65-18.23,100.51-38.61c10-4.1,20.34-8.46,27.93-16.2,6.61-6.73,11.42-16.13,20.37-19.09,13.84-4.58,26.61,8.9,34.46,21.18,11.55,18.09,22.14,37.48,38.85,50.94s41.82,19.44,59.65,7.5c14.28-9.56,26.22-30,42.5-24.5,6.54,2.21,10.87,8.27,14.75,14l35.05,51.59c2.48,3.66,5,7.46,5.83,11.82,1.62,8.9-4.35,17.23-10,24.31-51.05,64.22-107.75,132.23-187.19,152.69-14.35,3.7-33.68,13.6-27.52,27.07,5.78,12.65,31.79,18.47,23.21,29.41,83.56-33,154.74-96.4,197.18-175.6,6.9-12.88,13.67-26.83,26.05-34.59,9.47-5.93,21-7.4,32.06-8.74l89.19-10.7c11.57-1.39,27.3.08,29.33,11.55.79,4.43-1.06,8.91-3.46,12.71-20.56,32.69-70.08,25.52-104.72,42.59-40.09,19.76-54.75,68.87-84.88,101.9-27,29.59-68.46,48.7-81,86.73-4.51,13.65-4.74,28.72-11.35,41.48-12.13,23.42-40.73,31.55-64.18,43.61a160.12,160.12,0,0,0-63.63,59.53c-10.51,17.48-18.27,37.71-34.72,49.76s-38,13.36-58.35,14.26l-56,2.49c-7.93.35-16.35.58-23.21-3.4-10.16-5.88-13.44-18.72-15.8-30.22-23.25-113.2-46.48-230.64-20.52-343.25,7.15-31,18-61.28,22.12-92.85,2.12-16.14,2.67-33.14,10.76-47.26s27.17-23.72,41-15.13"/><path class="cls-6" d="M88.85,2600.26a91.62,91.62,0,0,1,47.38-13.06c12.67.05,29,8.23,25.51,20.4-1.37,4.72-5.52,8.05-9.68,10.66-21.58,13.5-51.66,18.29-62.24,41.44-4.22,9.23-4.3,19.77-6.93,29.58-8.8,32.93-44.37,52.88-54.88,85.31-2.75,8.49-3.68,17.61-7.55,25.66s-12,15.12-20.85,13.81c-10.23-1.52-15.66-12.79-18.33-22.78a158.93,158.93,0,0,1,116-195.55"/><path class="cls-6" d="M29.29,2914.64c1.16-23.16,24.76-40.07,47.86-42.08s45.59,7,67,15.85c22.57,9.3,49.37,25.4,46.25,49.61-2.85,22.15-28.73,32.15-43.37,49-15.54,17.89-18.21,44-32.57,62.83a62.21,62.21,0,0,1-53.32,23.89,62.21,62.21,0,0,1-49-31.83c-6.62-12.23-8.87-26.36-9.44-40.25a185,185,0,0,1,24-98.58"/><path class="cls-6" d="M422.78,2657.77c-30.86,29.28-38.13,76.17-65.29,108.91-26.16,31.54-69.35,48.26-87.72,84.89-5.59,11.14-8.52,23.6-15.33,34s-19.45,18.76-31.37,15.11c-15.57-4.77-19-26.94-11-41.08s23.15-22.44,36.72-31.43a250.51,250.51,0,0,0,56.59-51.6c19.18-23.85,33.89-51.09,53.75-74.37,42.79-50.16,109.53-78.92,175.38-75.56,3.22.17,6.76.55,9,2.89,5.83,6.14-3.57,15-11.64,17.61-25.91,8.22-53.57,9.07-80,15.31s-53.48,19.71-65.3,44.2"/><path class="cls-6" d="M1532.53,1733.76l75.63-42c31.26-17.35,73.45-33.67,99.42-9.09,14.53,13.75,17.52,36.37,12.9,55.84s-15.6,36.72-25.87,53.9c-4.13,6.9-8.29,14.35-8,22.38.69,18.79,24.85,36.76,13.74,51.93,43,4.46,69.55-45.31,107.39-66.2,19-10.47,41.26-13.57,60.61-23.35,15.46-7.82,28.48-19.62,41.3-31.27,15.36-14,31.91-30.46,32-51.22.13-25.19-24.75-43.88-49.3-49.52s-50.39-2.68-75.11-7.53c-14.87-2.92-29.07-8.61-43.85-12-71.32-16.23-142.3,22.95-205,60.64-40.87,24.58-83.28,50.63-108.46,91.14a854.07,854.07,0,0,0,97.59-73.17"/><path class="cls-13" d="M1007.22,3974.62c12.54,4.61,18.73,21.45,12.16,33.08,3.24,12.85,23.47,9.87,32.28,0s14.22-24.08,26.63-28.72a457,457,0,0,0,3.87,64.68,146.45,146.45,0,0,0-86.94-5.64c-5.69,1.39-11.62,3.14-17.32,1.74-12.21-3-16.63-19.46-11.65-31s16-19.1,26.52-26c6.72-4.44,14-9.06,22.1-8.75s16.2,8.15,13.57,15.77"/><path class="cls-13" d="M997.68,4063.08c10.5-2,7.43,15.91,10.27,26.21,4.48,16.23,30.54,11.84,40.3-1.88s12.14-32.19,24-44.17c10.87-11,27.19-14,42.44-16.53,13-2.14,28.21-3.61,37.5,5.72,5.08,5.1,7.15,12.39,9,19.34l19.26,71.3c-42.31,20.66-90.38,49.37-94,96.31-1.16,15.06,1.8,32.79-9.3,43-9,8.27-24.53,8.38-30.66,18.92-3.06,5.26-2.83,11.87-5.54,17.32-2.84,5.71-8.49,9.4-13.88,12.81l-46.95,29.7c-3,1.89-6.16,3.83-9.68,3.92-8.5.19-13.06-9.55-16.57-17.29a94.5,94.5,0,0,0-24.86-33c-23.92-20.33-59.25-30.43-71.09-59.5-12.5-30.68,9.32-65.08,35.69-85.13s58.49-33.09,80.16-58.15c10.31-11.93,25.11-28,38.33-19.38"/><path class="cls-13" d="M1779.22,3891.51c15.5-16.88,12.16-47.24-6.64-60.35-3-2.11-6.57-4.09-7.79-7.57-2.38-6.8,5.65-12.56,12.6-14.48a73.07,73.07,0,0,1,58.39,9c5.25,3.41,10.39,8.08,11.27,14.27,1.26,8.76-6.29,16.1-13.43,21.32a219.6,219.6,0,0,1-53.32,28.6"/><path class="cls-13" d="M854.76,4413.59c-21-17.05-51.25-18.56-77.07-10.61s-48.22,24-70.11,39.83l-47.92,34.61a134.7,134.7,0,0,0,47.1,3.69c1.83,18.48-28.38,23.31-34.47,40.86-6.5,18.73,18.65,33.2,38.46,32.53s42-6.93,57.84,5c6.38,4.81,10.58,12,16.53,17.29,22,19.71,57.41,7.63,80.84-10.35s45.2-42,74.52-45.55c16.86-2.06,33.7,3.15,50.66,4s36.53-4.75,43.3-20.32c8.89-20.44-9.22-41.85-25.74-56.82l47,6.26c-10.41-9.77-1.71-27,7.75-37.75,101.53-115,259.8-164,370.61-270.09,6.63-6.35,13.62-14.55,11.75-23.54-4-19.31-37.81-12.17-48.62-28.66l57.79-59.62a518,518,0,0,0-214.45,67.41c-11,6.38-23,15.06-24,27.78-.6,8.38,4,16.56,3,24.9-1.44,11.88-13.09,19.27-22.81,26.27-76.84,55.34-94.35,180.49-184.71,208.82-53.16,16.68-114.32-8.39-165.18,14.38"/><path class="cls-13" d="M224.39,4735c7.73-5.07,14.87,6.69,19.75,14.54,13.29,21.36,51.22,18.64,61.33-4.39,1.9-4.33,3.16-9.36,7-12,4.77-3.3,11.24-1.58,17-2.43,10.16-1.51,17.05-10.83,22.77-19.37l42.3-63.18a92.82,92.82,0,0,1-16.68,56.52c-5,7.1-11.22,14-12.33,22.61-3.58,27.67,43.4,36.41,48.6,63.83-16.8,5.11-33.23-8.74-50.64-11.05-19.21-2.55-37.48,9.32-50.87,23.33s-24.06,30.74-39.36,42.63c-19.64-9.72-3.82-42.42-15.82-60.76-4.14-6.33-11.15-10.06-16.79-15.1a45.61,45.61,0,0,1-14.93-35.76"/><path class="cls-13" d="M321.88,5111.65l-25-23.66c-4.41-4.18-9.1-8.89-9.7-14.94-.81-8.07,6.43-15.16,14.31-17.11s16.13,0,24,1.83l48.8,11.64c5.24,1.25,11.17,3,13.42,7.93,4,8.62-6.35,16.39-14.17,21.77s-13.58,19.11-4.72,22.51a73.75,73.75,0,0,1-56.49-27.31"/><path class="cls-13" d="M216.55,5417.79a39.1,39.1,0,0,0-2.94-37.75c-3.64-5.4-8.72-12.59-4.36-17.42,3.33-3.69,9.41-2.13,13.81.19,9.63,5.07,18.53,13.51,19.83,24.31s-8.55,22.75-19.13,20.19"/><path class="cls-13" d="M810.94,4615.92c-17.87,44.84,15.43,97.76-1.55,142.95s-74.47,60.26-101.76,99.89c-10.1,14.67-15.57,32.1-25.37,47-15.88,24.13-41.74,39.68-61.27,61s-32.23,54.79-15.82,78.56l-53.75-4.72c3.8,12.74-7.1,27.59-20.4,27.77-6.62.09-13.08-2.85-19.68-2.24-22.6,2.07-21.41,34.69-25.28,57.05-6.25,36.12-41.39,59.59-75.38,73.33s-71.5,23.13-97.42,49.05c-46,46-33.31,130.11,14.75,174s119.57,53.16,183.74,42.28c21.51-3.64,51.08-4.73,57.11,16.24,2.09,7.27.15,15.05-2.13,22.26a241.5,241.5,0,0,1-29.4,61.34"/><path class="cls-13" d="M823,4616.63c9.8,37.75,44.89,67.53,83.74,71,14.56,1.31,29.58-.69,43.58,3.48,34.7,10.35,49.51,53.23,81.94,69.33,5.83,2.9,13,4.78,18.67,1.54,4.72-2.69,7-8.14,8.94-13.21l23.67-61.5c26.53,4.28,31.38,39.2,40.06,64.64,17,49.85,67.41,79,113.92,103.69,5.41,2.87,11.32,5.83,17.36,4.83,7.29-1.2,12.36-7.74,16.34-14,27.43-43,38.68-94.4,62.35-139.63s67.47-86.94,118.34-82.67a433,433,0,0,1-77.65,148.93l21.3,8.76,8.8,36.91a505.27,505.27,0,0,1,135.25-97.36c17.61-8.68,48.65-7.71,46.21,11.77-.89,7.09-6.85,12.31-12.48,16.7-35.84,27.9-78.55,54.79-89.72,98.81-3.06,12.07,2,30.08,14.24,27.75a39.87,39.87,0,0,1,22.83-26.67c-6.75,71.12-40.8,139.31-93.59,187.45-21.78-10.23-24.38-46-4.31-59.26,7.76-5.13,17.34-6.91,25.25-11.82,18.51-11.48,23.08-37.69,16.21-58.36s-22.43-37.11-37.54-52.8c-5.82-6.05-12-12.33-20.06-14.73-15.14-4.5-30.38,6.09-46.06,8s-34.17-18-21.36-27.25c-22.91-2.82-42.72,16.63-53.23,37.18s-15.94,44-30.42,61.94c-14.85,18.43-37.71,29.13-52.22,47.82s-14.38,52.85,8.28,59.67c9.55,2.88,21.64.42,28.15,8,11.19,13-10,30-12.09,47.08-1.9,15.48,12.45,27.59,25.26,36.49L1316,5163c38.91,27,82.63,55.31,129.64,49.5,12.38-1.53,24.66-5.45,37.07-4.23,30.15,2.95,48.89,33.51,74.85,49.11,34.07,20.47,78.53,13.86,114.53,30.69,32.23,15.07,53.07,46.51,79.51,70.31,36.55,32.92,83.75,51.07,125.06,77.77s79.36,68,78.9,117.2c-.07,7.41-1.22,15.28-6,21s-12.63,8.25-20,10.2c-118.08,31.33-242.67,10-364.38-.46-319.78-27.5-641.95,21.6-962.28,1.63-27.35-1.71-56.61-4.67-77.66-22.21L536,5539.54"/><path class="cls-13" d="M1478.89,4232.37c8.07-14.89,25.36-20.48,40-26.59,7.81-3.26,15.65-6.77,22.41-11.94a50.35,50.35,0,0,0,9.65-9.75c3.42-4.52,6.2-9.46,9.34-14.17,3.32-5,7.11-9.6,12.23-12.8,4.85-3,10.6-4.59,16.16-2.74l-.9-2.2-31.74,58c-2.34,4.27-5.53,8.79-6.15,13.73-.51,4,1.3,7.41,3.81,10.37,2.33,2.76,5.25,5.15,6.83,8.46,2.07,4.31.54,9.16-1.59,13.12-2.38,4.41-5.58,8.36-8.54,12.38q-4.77,6.48-9.57,12.93c-6.32,8.5-12.72,16.95-19.29,25.26q-4.92,6.23-10,12.32c-3.16,3.82-6.24,7.84-9.88,11.22-3,2.76-7,5.47-11.25,4.54-4-.86-6.81-4.26-9.66-6.94a21.61,21.61,0,0,0-18.2-6.27,26.45,26.45,0,0,0-17.08,8.72,20.89,20.89,0,0,0-4.47,8.46c-.83,3.3-1.25,6.67-2.21,9.93-.69,2.36-1.66,5.75-4,7.09a3.09,3.09,0,0,1-2.83.11c-1-.81-2.21-3.1-2.76-4.52-2.92-7.41.37-15.8,4.12-22.27a67.18,67.18,0,0,1,7.51-10.4c2.87-3.29,5.93-6.39,8.65-9.81,5.21-6.54,10.15-14.13,11.18-22.62a20.08,20.08,0,0,0-1.81-11.27c-1.74-3.6-4.65-6.35-7.6-9-2.74-2.43-5.77-4.93-7.29-8.36a10.29,10.29,0,0,1,.1-8.76c3-6,10.14-9.16,16.17-11a69.69,69.69,0,0,1,10.39-2.15,59.65,59.65,0,0,0,10.55-2.55c6-2.06,12.76-5.38,15.83-11.29a13.88,13.88,0,0,0,1.28-9c-.32-1.9-3.21-1.09-2.89.8,1.13,6.61-4,11.33-9.31,14.15a45.78,45.78,0,0,1-10.28,3.78c-3.45.87-7,1.22-10.45,1.87-7,1.32-14.31,4-19.73,8.72a16.24,16.24,0,0,0-5.15,7.73,13.69,13.69,0,0,0,1.27,10c3.69,6.92,12,10.08,14.94,17.54,3.1,7.85-.6,16.36-4.83,23a84,84,0,0,1-8.38,10.88c-2.81,3.15-5.73,6.17-8.28,9.54-5,6.6-9.44,14.5-10,22.92a19.31,19.31,0,0,0,2.28,10.8c.88,1.55,2.12,3.66,3.89,4.23a6.13,6.13,0,0,0,4,0c2.81-1,4.32-3.89,5.37-6.51a54.78,54.78,0,0,0,2.64-10.08,21,21,0,0,1,3.34-8.67,21.35,21.35,0,0,1,7.22-6.23c5.54-3,12.45-3.94,18.41-1.62,7.19,2.8,10.79,11.56,19,12.21,4.44.35,8.48-2.08,11.7-4.89,3.7-3.22,6.74-7.21,9.86-11,13.7-16.47,26.51-33.65,39.21-50.89,3-4.11,6.3-8.14,8.85-12.58,2.34-4.06,4.1-8.71,3.32-13.46-.65-4-3.25-7-5.91-9.87-2.35-2.52-5.27-5.29-5.59-8.94-.22-2.53.8-5,1.91-7.18s2.52-4.65,3.79-7l8-14.62,16-29.25,7.88-14.4a1.52,1.52,0,0,0-.9-2.2c-10.27-3.42-20.9,3.08-27.29,10.81-7.07,8.55-11.36,19.17-19.7,26.69-13,11.69-30.93,15.39-46,23.4-8.2,4.34-15.68,10.18-20.17,18.47-.92,1.7,1.67,3.21,2.59,1.51Z"/><path class="cls-13" d="M2626.12,3038.08c1.86,70.18-47,138.71-113.93,159.85-41.45,13.08-101.67,25.79-96.76,69,25.13,32.35,1.82,81.92-32.57,104.17s-76.77,28.29-113.45,46.54-69.5,58.42-56.49,97.26c4.61,13.76,14.41,25.25,19.45,38.86,13.88,37.43-11.18,77.58-38.18,107-139,151.36-367.5,228.82-439.33,421.37-22.76,61-26.78,128.34-54.32,187.35a256.63,256.63,0,0,1-105.74,114.17c-16.83,9.49-37.73,28.91-25,43.42,11.35,12.92,31.79,0,48.93-1.43,36.4-3,49.91,55.34,23.31,80.36s-68.63,22.39-104,13.2-71.41-23.47-107.23-16.36c-44.69,8.87-78.17,49.21-122.89,58-72.07,14.1-151.28-57-213.82-18.49,114.62,25.21,206.3,131.64,214.27,248.72,32.3,34.31,89.82,22,130.92-1s81.26-55.34,128.36-54.21c22.47,94.13-22.57,189.24-54.12,280.73a1045.41,1045.41,0,0,0-57,342.26c.1,47.89,4.09,97.79,28.36,139.09,29.51,50.2,85.38,80.26,142.33,92.44s115.9,8.84,174.1,6.72c96.38-3.51,193.24-3.49,288.84,9.27,102.76,13.72,204.05,42.14,307.72,42.52a576,576,0,0,0,313-91.86c17.32-11.21,34.34-23.65,46.52-40.3,32.3-44.15,23.33-104.8,15.48-158.94-67.69-466.63,58.17-938.64,60.59-1410.14a2700.7,2700.7,0,0,0-139.07-868.51c-5.84-17.47-12.71-36.05-27.77-46.65s-40.72-7.61-46.54,9.88"/><path class="cls-13" d="M1855.92,3158.94c-10.26-3.15-21.78,8.07-18.9,18.4,12-.33,24.31-.6,35.44,3.81s20.81,14.77,20.56,26.74c-.31,14.6-15,25.27-29.37,27.7s-29.08-.88-43.68-1.28c-61.94-1.71-118.2,58.44-112.34,120.13,12.68,2.36,24.47-6.42,34.39-14.67l65.61-54.58c7.45-6.2,15.69-12.71,25.38-13,13.74-.37,24.87,12.66,27.31,26.18s-1.59,27.29-5.58,40.44c24.34,3.28,49.2-7.25,67-24.12s29.37-39.47,37.11-62.77c4.53-13.64,8.42-28.52,19.33-37.86,9.56-8.18,22.79-10.52,33.49-17.14s18.53-22,10.21-31.48c-9.28-10.51-26-2.52-39.78.06-23.14,4.36-45.43-9.37-68.48-14.21a92.74,92.74,0,0,0-60.33,7.91,24.07,24.07,0,0,1,29.33,1.18"/><path class="cls-13" d="M1272.38,3726c-80.2,55.69-182.48,64.5-278.22,83.62-11.35,2.26-25.79,9.19-23.19,20.46.93,4.08,4.1,7.27,7.44,9.78,22.07,16.6,53.52,12,79.16,1.76s49.94-25.53,77.39-28.58c16.69-1.85,36.26,2.74,43.85,17.71,10.55,20.85-8.46,44.21-27,58.5s-40.5,32.11-37.25,55.25c.62,4.41,2.37,8.9,5.93,11.57,2.75,2.07,6.27,2.82,9.69,3.17,25.09,2.59,48.1-12.87,68.57-27.61L1424,3769.5c15.72-11.33,33.23-26.31,31.45-45.61-1.41-15.19-15.33-26.87-30.15-30.49s-30.38-.86-45.31,2.27c-40.28,8.45-80.17,19.67-117.58,36.82"/><path class="cls-13" d="M310.93,4675.78c1.16,4.54-6.84-.22-5.87-4.81,6-28.3,39.5-39.09,62.84-56.2,27.12-19.87,43.13-54,41.07-87.56-.48-7.8-1.81-16,1.18-23.18,6.43-15.5,28.19-17.19,44-11.68s30.76,15.71,47.53,15.31c23.34-.56,45.46-21.73,67.36-13.61-15.07,7.71-30.66,15.84-41,29.29s-13.6,33.83-3,47c-29.69,15.53-62.07,34.19-71.89,66.23-7.73,25.19-.3,55.84-17.29,76-14-16.48-16.43-41.89-5.73-60.71,2.44-4.3,5.62-9,4.24-13.77-1.11-3.82-4.89-6.24-8.66-7.53-41.43-14.18-73.27,64.79-114.07,48.89"/><path class="cls-13" d="M.25,4801.81a313.33,313.33,0,0,1,140.07,18.52c10.22,3.85,22.32,13.42,17.19,23.06-2.93,5.51-10,7-16.06,8.33a118.43,118.43,0,0,0-77.51,58.91c-6.78-7.06-3.85-18.44-2.44-28.13s-2.28-22.86-12.07-22.7c-4,.06-7.44,2.51-11.15,3.91C24.18,4869.05,8.16,4858,2.59,4844s-3.53-29.75-1.42-44.68"/><path class="cls-14" d="M2690.91,997.42c-43.42-16.32-92.08,6.74-127,37.22s-63.38,69-103.13,92.94c-50.75,30.54-117.46,32.56-170,5.15-32-16.7-67-44.25-99.71-29.06-13.05,6-22.25,18-30.93,29.44L2049,1280l-28.79,38.06c-8.4,11.12-15.79,29.3-4,36.69,4.49,2.81,11,3,13.62,7.62,3.74,6.46-3.61,13.33-8.71,18.78-25.81,27.57-10.69,89.57-47.89,96.07,19.76,17.85,51.23,13.19,75.13,1.46s45.25-29.43,71.09-35.86c56.21-14,120.25,28.19,170.88,0,48.78-27.12,50.32-101.3,95-134.77,45.56-34.15,118.33-12.86,160.21-51.44,9-8.31,16.28-19.2,27.57-24,36.35-15.45,61.52,40.24,98.17,55,34.08,13.72,73.46-13.82,86.11-48.31s6.15-72.71-.52-108.84L2742,1049.8c-5.56-30.15-27-69.58-55-57.15"/><path class="cls-15" d="M1020.33,1944.39c12.68-17.36,38.91-23,57.64-12.47,11.22,6.32,20.16,17.7,32.92,19.51,7.93,1.13,15.83-1.76,23.29-4.67,183.54-71.56,347.93-191.57,472-344.57,18.15-22.38,36.34-46.19,62.08-59.12,27.53-13.83,59.78-13.27,90.57-12.41l165.63,4.65c28.72.8,63.63,5.65,74.5,32.24-98.17,38.64-208.43,33-309.4,63.64-169.29,51.33-291,195.86-438.54,293.44-15.54,10.28-32.78,20.43-51.38,19.35-10-.57-19.65-4.39-29.62-4-13.47.47-25.35,8.35-37.35,14.48a158.45,158.45,0,0,1-89.87,16.21c-11.23-1.31-24.07-5.27-27.94-15.89s12.06-23.42,18.51-14.13"/><path class="cls-14" d="M2264.28,1872.66c-28.51,43.74-87.67,59.53-116.5,103.06-5.71,8.62-10.15,18.66-9.3,29,1.72,20.71,23.52,33.81,43.87,38,47.12,9.73,94.74-9,141.66-19.61s103.58-10.1,134.23,27c16,19.34,24.08,47.66,47.44,56.85,17.77,7,38.23-.39,53.5-11.86,43.1-32.35,55.47-99,26.85-144.7-18.86-30.1-51.75-49.36-86.1-58.44s-70.4-9-105.9-7.58q-74.25,2.91-148,13.06"/><path class="cls-14" d="M1990.79,2214a35.64,35.64,0,0,0,9.19-35.64c-3.17-10.12-11-19.11-10.52-29.7.75-17.05,22.1-25.41,39.06-23.4s33.4,10,50.35,7.88c15.29-1.87,28.84-11.76,44.21-12.94s33.16,15.23,24.19,27.76c-4,5.61-11.42,7.32-17.78,10a50.5,50.5,0,0,0-28.51,32.33c-3.75,13.34-1.82,27.77-5.45,41.14s-16.84,26.35-29.92,21.75c-6.73-2.36-11.17-8.6-16-13.9a79,79,0,0,0-49.42-25.35"/><path class="cls-4" d="M-41.46,2590.19a179.1,179.1,0,0,1,74.53-32.88C45.6,2555,58.34,2554,71,2553l107.8-8.44c5.36-.42,12.15,0,14.13,5,1.84,4.62-2,9.41-5.79,12.67-40.25,35-101,43.35-133.88,85.36-11.86,15.18-19,33.63-30.84,48.83a98.47,98.47,0,0,1-65.67,36.86,171.65,171.65,0,0,0,68.69-82.76c1.24-3.19,2.4-6.61,1.73-10-1.33-6.61-9-9.8-15.7-10.43-18.57-1.75-39.38,6.93-54.83-3.52-16.8-11.37-10.2-42.94,9.74-46.62"/><path class="cls-4" d="M561.52,2567.05A355.87,355.87,0,0,1,683.1,2367.4c10.9-8.92,24.15-17.64,38-15.06s22.72,23.32,11,31.1a35,35,0,0,1,24.26,7.63c-25.42,14.23-60,15.6-76.27,39.75-3.53,5.24-5.92,11.74-4.36,17.86,3.19,12.58,19.93,15.71,32.63,13s25.72-8.58,38.1-4.7l-66.67,12.26c-18,3.31-36.31,6.72-52.64,15-32.1,16.33-53.22,52.16-52,88.15-4.37,2-10.15-2-9.9-6.76"/><path class="cls-4" d="M266.9,2647.53a98.34,98.34,0,0,1-.52-12.72,50.57,50.57,0,0,1,16.59-35c-.77-4.6-7.87-4.85-11.27-1.66s-4.64,8-7.4,11.79c-6.29,8.55-18.39,9.47-28.5,12.68s-20.53,13.94-15.18,23.11c5.12,8.79,18.6,6.12,27.62,10.81,3.77,2,7.08,5.35,11.31,5.46,5.44.14,9.53-5.59,9.67-11s-2.53-10.49-5.13-15.26"/><path class="cls-7" d="M345.88,2611.28c12.95-3.36,19.91-20.66,12.89-32.05-6.65,3.19-13.91,6.47-21.13,5s-13.19-10.24-9.12-16.39c2.31-3.49,6.72-4.76,10.62-6.31a48.62,48.62,0,0,0,25.15-22.88c9,.17,9.39,13.41,6.93,22s-1.11,22,7.83,21.32c5,5.55,2.38,14.65-2.38,20.42s-11.33,10.09-14.95,16.64c-6.84,12.38-1,28.12-4.83,41.74-4.49,16-24,25.88-39.53,20s-23.75-26.09-16.62-41.09c10.83-22.82,44.35-24.07,60.48-43.51"/><path class="cls-4" d="M680.26,2795.23c18.73,14.62,44.26,19.15,67.57,14.51s44.37-17.84,60.89-34.92c8-8.28,15.47-17.79,26.09-22.28,15.43-6.52,33.16-.74,49.8-2.64,36.8-4.19,65.67-45.15,102-38.2,3.92,13.35-9.6,24.87-21.41,32.25-30.35,19-62,38.41-97.52,42.76-12.54,1.54-25.35,1.15-37.65,4-22.4,5.22-41.05,20.67-62.8,28.13C739,2828.57,706,2823.4,682,2805.51c-2.95-2.21-6-5.06-6.1-8.74s5.07-6.89,7.39-4"/><path class="cls-16" d="M2078.06,2107.6c-3.84-5.59.22-13.81,6.33-16.75s13.29-2.14,20-1.28l60.85,7.76c11.65,1.49,24.06,3.32,32.82,11.14,15.09,13.49,15.59,41.45,34.72,48.08,6.34,2.19,13.36,1.28,19.88,2.85s13.11,7.6,11.24,14a23.15,23.15,0,0,0-25.88,36.89c-5.55,8-18.67,0-21.17-9.42s-.83-20.35-6.84-28c-8.42-10.69-25.52-7.35-37.41-.74s-24.09,15.82-37.54,13.75c-5-14.42,15.43-28.55,10.67-43.07-3.76-11.46-19.45-12.65-31.32-10.5s-26.29,4.64-34.12-4.53c-8.1-9.48-2.71-23.93,3.05-35"/><path class="cls-13" d="M648.79,3268c-11.75,3.88-3.17,21.27,5.1,30.47,28.66,31.94,31,84.4,5.24,118.74-11,14.69-27,27.65-28.8,45.93-.89,9.13,2,18.15,2.9,27.28,3.13,33.66-22,63.22-48.7,84a330,330,0,0,1-117.8,58.5c-35.27,9.37-76.22,15.48-96.39,45.89-4.5,6.78-7.34,16.52-1.85,22.53,3.23,3.54,8.38,4.53,13.16,4.73,28.63,1.19,53.24-18.37,77.78-33.16s58.13-24.74,80.16-6.42c4.83,4,9,9.35,15.07,11,7.67,2.13,15.48-2.29,22.22-6.54,52-32.79,108.89-72.47,119.54-133,4.91-27.92-1-56.68,1.67-84.89,2.48-25.77,12.07-50.27,17.69-75.54,10.81-48.74,5.33-103.45-25.7-142.56s-91.13-56.34-133.54-30c16.52,14.65,41.21,12.91,63.09,15.8s47.25,18,43.94,39.8a12,12,0,0,1-14.19,2.9"/><path class="cls-13" d="M557,3381.39c25.14.37,40.13,29.85,39.52,55-.75,30.65-16.09,60-38.48,80.91s-51.33,34-81.22,40.9c-5.53-19.09,16-33.79,32.92-44.24,24.09-14.9,47-39.9,42.4-67.85-2.16-13.12-10.29-25-10.43-38.33s15.47-27.34,25.54-18.65"/><path class="cls-13" d="M214.81,3412.29c7.07-9.63,18.08-14.86,29.45-17.56,11.82-2.81,24.27-3.41,36.39-3.35,9.72,0,23.34,1.09,28.29,11,2.89,5.78,1.11,12.17-2.35,17.25-3.76,5.5-9.2,9.56-15,12.71-10.57,5.73-23.42,10.66-28.9,22.26-3.15,6.68-3.41,14.16-4,21.4a96.59,96.59,0,0,1-3.95,20.69,95.55,95.55,0,0,1-8.39,19.23,97.94,97.94,0,0,1-5.79,8.88,58,58,0,0,1-6.48,7.76,20.56,20.56,0,0,1-6.9,4.43c-2,.75-4.52,1.32-6.55.32-2.9-1.42-3-5-2.33-7.71a93.67,93.67,0,0,1,4-11.06q8.72-22.64,18.52-44.85t20.71-44.06q2.67-5.36,5.42-10.69a1.53,1.53,0,0,0-.9-2.21c-8.78-3.33-17.46,2-25.06,5.89-6.51,3.31-15.75,6.69-21.13-.3-1.9-2.48-3-6.16-.67-8.75,1.26-1.44-.85-3.57-2.13-2.12-5,5.72-.44,14.14,5.63,16.88,4.07,1.83,8.84,1.25,13-.14,4.78-1.6,9-4.29,13.56-6.44,5-2.37,10.67-4.17,16.06-2.12l-.9-2.21q-11.62,22.6-22.12,45.78t-19.79,46.73q-2.37,6-4.67,12.07c-1.33,3.5-3.15,7.29-2.84,11.13a8.18,8.18,0,0,0,4.51,6.94,10.86,10.86,0,0,0,7.62.11c6.21-1.91,10.47-6.6,14.33-11.57A97.58,97.58,0,0,0,259.83,3489c1.57-7.4,1.74-14.88,2.69-22.36a34.35,34.35,0,0,1,3-10.95,26.21,26.21,0,0,1,5.73-7.57c4.73-4.42,10.62-7.38,16.32-10.31,6.09-3.13,12.05-6.3,17-11.14,4.68-4.61,8.65-10.64,8.91-17.39a17.84,17.84,0,0,0-7.65-15.05c-4.64-3.34-10.48-4.69-16.07-5.37a116.86,116.86,0,0,0-18.14-.34,174.63,174.63,0,0,0-19.38,1.62c-12.16,1.79-24.55,5.56-33.9,13.88a42.83,42.83,0,0,0-6.05,6.71c-1.15,1.56,1.45,3.06,2.59,1.52Z"/><path class="cls-17" d="M2143.84,1880.84c-7.4-17.84-35-24.44-35.5-43.74-.34-13.73,13.81-22.72,26.12-28.83,23.47-11.64,48.27-23.57,74.43-22.26s53.4,21,53.14,47.24c-.27,26.94-27.13,45.22-51.89,55.84-11.7,5-24.16,9.53-36.83,8.41s-25.56-9.4-28.12-21.87"/><path class="cls-17" d="M2206.4,1179.31c2.56-15.93,21.37-24.88,37.34-22.58s29.48,12.56,42.21,22.47c3.72,2.9,7.78,6.42,7.94,11.14.29,8.62-11.32,11.52-19.94,11.56-26.09.1-60.1-6.17-63.77-32"/><path class="cls-6" d="M2164.37,1226.29c-36.9,33.63-76.57,77.67-66,126.47,15.72,14.34,41.08,7.25,61.15,14.31,18.7,6.57,31,24.8,48.94,33.28,24.68,11.68,55.26,1.93,75.4-16.51s32-44,43.1-68.93c-21.59-25.87-67.49-7.24-94.86-26.9-12.5-9-18.52-24.19-26.88-37.11s-22.59-25-37.55-21.41"/><path class="cls-17" d="M2660.49,1048.89c-39.57-14.94-89.23,8.65-102.64,48.77-3.28,9.82-4.72,20.49-10.43,29.13-9.09,13.77-26.4,18.91-41,26.55s-29,23-23.91,38.67a116.26,116.26,0,0,1,100.91-1.39c24.39,11.56,49.06,32.38,74.8,24.27,28.16-8.87,35-46.07,30.12-75.19s-16.15-59.52-5.65-87.12"/><path class="cls-17" d="M2665.46,414.4c-71.62,1.79-135.08,44.08-194,84.82-17.08,11.81-35.92,26.68-36.64,47.44,31.43,3.09,64.07,6.57,91.06,23,7.79,4.74,15,10.48,23,14.76,30.82,16.38,73,6.52,93.42-21.81,29.17-40.52,10.82-98.63,28.76-145.22"/><path class="cls-17" d="M2262.29,581.54c2.07-18.68,21.38-31.6,40.13-33s36.93,5.85,54.3,13a169.94,169.94,0,0,0-70.38,37.9c-12.05,10.83-24.86,24.36-41,23.31a67.81,67.81,0,0,1,26.44-51.66"/><path class="cls-17" d="M2310.62,665c12.25-19,30.79-32.85,51.3-41.82,23.4-10.24,49.08-13.68,74.46-13.49a372.3,372.3,0,0,1,42.07,3c6.54.79,13.23,1.4,19.68,2.77a36.37,36.37,0,0,1,13.19,5.3c3.42,2.36,6.21,6,5.41,10.36-1,5.61-7.06,9.7-11.39,12.78-9.32,6.63-19.9,11.17-30.54,15.21s-21.71,7.76-32.15,12.66a110.15,110.15,0,0,0-27.18,18.1c-16.14,14.59-28.35,32.78-42.41,49.24-7,8.22-14.57,16.12-23.18,22.69a119.47,119.47,0,0,1-29.19,15.94c-21,8.21-43.18,12.49-64.16,20.62-10.22,4-20.15,8.83-29,15.39-9.73,7.24-17.74,16.36-25.36,25.72-15,18.41-30.62,39.55-54.92,45.68A43,43,0,0,1,2130,886l1.05,1c-6.55-20-.34-40.66,9.79-58.31,10.64-18.51,25.23-34.33,39.67-49.91a1007.42,1007.42,0,0,1,94.68-89.64q28.45-23.64,58.6-45.13c1.56-1.11.06-3.72-1.52-2.59A1011.59,1011.59,0,0,0,2228.88,726q-24.35,22.75-47.14,47.09c-14.72,15.72-29.7,31.66-41.07,50-11.88,19.23-19.84,42.29-12.51,64.67a1.49,1.49,0,0,0,1,1.05c24.91,4,46.49-13.27,61.73-31,8.23-9.57,15.69-19.82,24.34-29a103.91,103.91,0,0,1,28.63-21.69c20.61-10.53,43.58-15.09,65.44-22.24,10.89-3.57,21.65-7.77,31.56-13.56a120.13,120.13,0,0,0,25.74-20.73c15.55-16.14,27.83-35.09,43.34-51.27a114.64,114.64,0,0,1,26-20.85c10.42-5.9,21.74-10,32.94-14.08,10.87-4,21.83-8.11,31.83-14A72.32,72.32,0,0,0,2514.68,640c3.51-3.46,6-8,4.91-13.08-2-9-13.49-13.06-21.4-14.6-6.49-1.27-13.17-1.94-19.74-2.73-7.24-.88-14.5-1.61-21.77-2.14-27.09-2-54.9-.92-81,7.32-21.72,6.86-42.37,18.55-57.71,35.6a104.34,104.34,0,0,0-10,13c-1.05,1.63,1.55,3.13,2.59,1.52Z"/><path class="cls-7" d="M2067.66,1014.36A27.43,27.43,0,0,0,2086.12,994c-6-8.74-24.61,1.59-28.67-8.2-2.27-5.5,3.44-10.8,8.45-14a1117.15,1117.15,0,0,1,163.68-86.23c-.63,14.4-16.35,22.33-29.17,28.9-33.95,17.37-61.45,44.86-88.35,71.89l-17,17.14c-13.46,13.52-27,27.18-37.26,43.26-8.24,13-14.16,27.21-21.09,40.91a305.88,305.88,0,0,1-87.24,104.77c-5.1,3.88-10.61,7.72-17,8.53-16.36,2.08-28.47-18.67-23.28-34.32s21.26-25.17,37.17-29.52c7.82-2.14,16.06-3.45,23-7.69,9-5.51,14.44-15.12,19.88-24.15A419.18,419.18,0,0,1,2091.9,990"/><path class="cls-13" d="M677.74,5158.91c-28.07-14.91-36.11-51.27-36.46-83.06a331.29,331.29,0,0,1,45.54-170.67c24.09-40.9,58.15-79.94,59.31-127.39,1.12-45.87-29.26-86.54-37.12-131.75l31.14,23.9c3,2.27,6.15,4.64,9.86,4.88,13.81.89,11.83-21.75,2.68-32.13s-19.77-27.5-8.4-35.38l37.19,9c27,6.52,56.18,14.33,73.34,36.23,16.49,21.05,17.76,49.95,17,76.68a792.94,792.94,0,0,1-78.85,321.26c-9.9,20.43-21.38,41.22-40.09,54.07s-46.63,15.07-62.8-.87c-13.45-13.26-15-34.25-14.06-53.12A316.4,316.4,0,0,1,705.26,4933"/><path class="cls-13" d="M649.47,4911.49a31.23,31.23,0,0,1-26.39-.57,29.76,29.76,0,0,1-5.68-3.66c-1.83-1.53-3.46-3.28-5.3-4.81-3.7-3.08-8-4.59-12.74-3.24s-8.58,4.54-12.77,6.94a40.31,40.31,0,0,1-12.53,4.56c-9,1.7-18.32.43-26.93-2.42a78.88,78.88,0,0,1-24.61-13.58,47.41,47.41,0,0,0-10.51-6.6c-3.38-1.48-7.25-2.64-11-1.78a9.55,9.55,0,0,0-7,7.32c-.74,3.67,1,7,3.37,9.69,5.92,6.56,14.67,9.06,21.59,14.23s12.94,13.2,13.82,22.14c.78,7.84-2.22,16.36-8.53,21.29a18.1,18.1,0,0,1-5.08,2.78,1.53,1.53,0,0,0-.36,2.75c8.63,4.65,18.28,4.11,27.37,1.13,9.9-3.24,19-8.55,28.33-13a93.09,93.09,0,0,1,14.66-5.75,174.89,174.89,0,0,1,17.45-3.65c10.52-1.85,21.19-3.89,30.36-9.66,8.75-5.51,16-14.11,16.48-24.83.09-1.93-2.91-1.92-3,0-.4,8.94-6.32,16.33-13.45,21.22-8.57,5.88-18.63,8.12-28.71,9.93-5.55,1-11.13,1.89-16.62,3.23a87.41,87.41,0,0,0-14.84,5.14c-9.14,4.07-17.79,9.22-27.11,12.92-9.49,3.77-20,5.83-29.4.75l-.36,2.74c7.85-2.79,13.25-9.89,15.15-17.86,2-8.53-.22-17.3-5.25-24.36a43.17,43.17,0,0,0-9.7-9.71c-3.6-2.64-7.64-4.43-11.49-6.65-5.08-2.92-15.73-9.52-10.46-16.59,2.13-2.86,5.83-2.78,9-1.94a35,35,0,0,1,11.06,5.69c3.65,2.62,7,5.49,10.88,7.87a83.15,83.15,0,0,0,12.55,6.38,62.25,62.25,0,0,0,27.2,4.85,45.23,45.23,0,0,0,13-2.75c4.48-1.69,8.31-4.3,12.38-6.76s8.78-4.52,13.31-1.91a29.45,29.45,0,0,1,5.34,4.38,38.61,38.61,0,0,0,5.31,4.31,34.54,34.54,0,0,0,26.26,4.66,32.18,32.18,0,0,0,6.41-2.21c1.75-.8.23-3.39-1.51-2.59Z"/><path class="cls-13" d="M307.23,3204.35c-14.48-16.39-29.69-39.16-19-58.26,8.14-14.58,26.94-18.17,42.73-23.63,17.91-6.18,34.08-16.46,50.07-26.64l126.76-80.73c-51.08-1.22-89.18,48.21-138.7,60.78-18.35,4.66-39.31,4.75-53.17,17.63-4.13,3.84-7.44,8.69-12.35,11.44-12.62,7.07-29.23-2.68-42.65,2.72-13.9,5.6-17,24.21-14,38.89,6.13,30.09,30.05,55.84,59.6,64.18"/><g class="cls-18"><path class="cls-19" d="M2134.2,1943.51c5.82,3.16,3.63,12,.38,17.74-7.19,12.76-15.9,24.8-20.86,38.58s-5.59,30.2,2.89,42.14c11.89,16.73,36,18.34,56.36,15.94s42.33-6.92,60.47,2.68c11.1,5.87,21.79,17,33.86,13.57,6.69-1.91,11.24-7.92,15.3-13.56l23.33-32.46-85.25,9.86c-10.07,1.16-20.42,2.31-30.2-.34s-19-10-20.63-20c-1.07-6.38.89-13.48-2.4-19-4-6.85-14-7.93-18.78-14.26-5.07-6.65-2.59-16-1.9-24.36s-3.36-19.2-11.71-18.69"/></g><path class="cls-20" d="M2007.54,2291.89A350.86,350.86,0,0,0,1880.45,2346c-32.27,22.13-62.08,68.53-34.72,96.51,17.06,17.45,53.9,26.52,46.26,49.71-2.73,8.28-11,13.32-19.13,16.59-30.68,12.42-67.32,8.93-95.11-9.06-17.91,15.05.18,43.72-1.77,67-1.67,20-20.31,35.94-40.22,38.59s-40-5.9-55.42-18.81c-9.74-8.17-18.54-18.41-30.71-22.09-21.61-6.54-42.84,9.92-59.34,25.34q-103.36,96.55-200.17,199.81c-13.4,14.3-27.54,34.9-17.39,51.66,3.79,6.26,10.35,10.33,17,13.32,33.25,14.87,72.8,7.84,105.42-8.38s60.21-40.75,89.3-62.69c134.24-101.25,301.86-148.47,442.4-240.79,51.37-33.74,103.7-84.18,97.55-145.33-6.47-64.35-75.05-104-138.63-115.8"/><path class="cls-21" d="M1363.29,2902.53c-15.82-22-44.75-29-68.78-41.47s-46.37-40.7-33.71-64.66c12.77-24.18,54.24-28.56,56.54-55.81-19.28-18.34-48.76,12.16-75.29,10.16-12.42-.94-23-9.16-35-12.72-56.86-16.94-104.91,73.32-161.7,56.13-10.3-9.39,4-24.34,13.61-34.41,29.68-31,14.62-81.65-2.16-121.15-3-7.12-6.4-14.67-12.9-18.85-4.55-2.93-10.07-3.82-15.43-4.57a522.12,522.12,0,0,0-174.91,5.34c-22.42,38.52-69.54,53.33-111.36,68.84s-87.7,41.37-95,85.5c-.83,5-1,10.34,1.27,14.83,2.75,5.31,8.48,8.32,14,10.56,33.65,13.59,73.74,10,104.46-9.31,22.89-14.4,41.47-37.18,67.76-43.51,17.75-4.28,36.47-.28,54.6-2.5,53.15-6.51,95-64.76,147.71-55.15,19.42,22.56,4.61,58.52-17.19,78.79s-50.35,34.47-65.1,60.33c39.56,16.9,86.84,14.53,124.5-6.26,12.76-7,31.94-14.56,39-1.78,9.27,16.84-22.62,30.19-23,49.41-.16,8,5.42,14.94,10.84,20.88a445.66,445.66,0,0,0,153.65,109c7.77,3.31,15.94,6.62,21.43,13,16.52,19.27-2.62,49.31-25,61.31-39.34,21.1-86.7,18.45-131.15,14.26s-91.11-9.05-132.18,8.45-72.63,66.25-54.77,107.16c10.48,24,37.13,39.87,63.21,37.66,36.07-3.07,61.56-34.86,89.19-58.26,49.59-42,114.41-60.36,171.93-90.61s112.8-81.89,113.12-146.88C1375.6,2930.88,1372.28,2915,1363.29,2902.53Z"/><path class="cls-22" d="M2039.24,2741.79c23.07,6.6,47.46-8,62.09-27s22.69-42.19,35.16-62.68c37-60.85,111.58-92.35,182.77-90.38L2265.79,2619l71.92-21.61c8.17-2.46,17.2-4.87,25-1.38,7.11,3.19,11.28,10.49,16.89,15.89,24.58,23.68,64.88,5.66,93.57-12.82s69.68-35.66,93.38-11.11c16,16.59,13.17,44.7.64,64.05s-32.4,32.47-50.59,46.64a410.22,410.22,0,0,0-125.89,165c-18.75,45-29.5,93.46-53.45,135.91-36.62,64.92-102.24,110.54-173.48,132.43S2016,3153.62,1942.32,3142c-6.27-1-13-2.33-17.25-7.09-21.23-24,56.66-49.1,38.32-75.4-2.54-3.65-6.59-5.94-9.5-9.29-10-11.45-2.41-30.44,10.2-38.87s28.38-10.08,42.86-14.61c40.19-12.57,71.21-50.44,75.61-92.32,2.21-21.09-1.36-44.13,9.94-62.07,6.24-9.9,16.87-18,17.78-29.69,1.6-20.67-27.39-29.2-47.28-23.39s-39.86,18.52-59.76,12.72c-8.47-27.66,19.44-59.33,48-54.4"/><path class="cls-17" d="M2182,2691.91c-8.51-32.6,21.33-69.07,55-67.18,8.73.49,18,3,25.88-.71s10.12-17.92,1.62-20a281.63,281.63,0,0,1,78.33,4.64c6.77,1.37,14.57,3.92,16.72,10.49,2,6.2-2.36,12.88-7.87,16.38s-12.07,4.92-17.94,7.77c-24.65,12-30.2,43.77-35.12,70.73s-18.06,58.77-45.34,61.45c-21.64,2.12-40.11-16.64-48.71-36.62s-11-42.28-20.29-61.94"/><path class="cls-17" d="M1605.64,2620c1.6-14.61,19.45-23,33.7-19.43s24.88,15.42,33,27.7c2.45,3.71,4.8,7.67,5.4,12.07.86,6.39-2.11,12.7-5.82,18-24.64,35.1-78.69,38.21-104.63,72.36-8.59,11.3-13.75,25.66-25.26,34s-32.9,4.13-33-10.07c0-3.77,1.49-7.35,3-10.8q8.67-19.51,18.84-38.31c-19.13,4-39.8,7.83-57.58-.29s-28.45-33.67-15-47.83c7.23-7.59,18.46-9.36,28.8-11a546.63,546.63,0,0,0,139.33-42"/><path class="cls-17" d="M1449.83,2798.39c8.89,3.69,14.4-10,13.69-19.61s1.34-23.33,11-22.79c11,3.37,13.77,17.44,13.73,28.9,0,10.89-1.06,22.29-6.91,31.47s-17.88,15.23-28,11.12c-12.58-5.13-18.23-23.5-31.81-23.88-3.71-.1-8.08,1.09-10.68-1.55-4.79-4.86,3.82-11.45,10.5-12.79l34.23-6.87"/><path class="cls-17" d="M392.09,3451.34c9.77,1.78,17.26-10.79,14.27-20.26s-12.24-15.43-21.3-19.5c9.5-5,20.65,1.22,30.82,4.67s25.53.41,25.37-10.33c-12.95-.19-24.79-11.41-25.67-24.34,35.67-5,72.14-10.26,104.13-26.83,11.23-5.81,22.6-13.19,35.23-12.71s25.33,14,19.37,25.15c-1.67,3.14-4.49,5.49-7.42,7.5-8.79,6-19.22,9.71-26.95,17s-11.7,20.57-4.53,28.45c1.66,1.82,3.89,3.4,4.34,5.81.38,2-.63,4-1.75,5.73-17.58,26.74-59.17,17.41-88.24,30.77-8.42,3.87-15.84,9.76-24.41,13.3s-19.28,4.29-26.4-1.65-6.61-19.87,2.22-22.71"/><path class="cls-17" d="M160.34,3426.78a237.59,237.59,0,0,1,98.86-28.51c22-1.37,47,1.79,60.47,19.27a12.89,12.89,0,0,1,2.93,6.11c.81,6.71-6.72,11-12.92,13.71-16.35,7.13-33.06,17.9-38.21,35-3.41,11.3-1.14,23.54-3.06,35.19-5.23,31.8-38.34,49.87-67.66,63.23-15.38,7-31.07,14.11-47.85,16.17s-35.14-1.68-47-13.75c-11.46-11.67-15-28.86-16.75-45.12-1.8-16.8-2.17-34.3,4-50,12.82-32.75,49.39-48.73,83.13-58.65"/><path class="cls-17" d="M299.85,3529.55c-8.54-8-1.6-24,9.61-27.36s23.17,2,32.75,8.75,18.38,15.07,29.49,18.77c10,3.33,20.89,2.57,31.15,4.94s20.89,9.75,21.22,20.28c.49,15.88-20.15,22.15-36,23.44l-54.74,4.44c-14,1.14-28.92,2.11-41.35-4.49-13.71-7.28-21.82-23.85-19.15-39.14s15.91-28.14,31.28-30.34"/><path class="cls-17" d="M727.47,2772.28a43.56,43.56,0,0,0-34.58-28.53A76.41,76.41,0,0,1,748.36,2719c8.7,0,18,1.74,24.15,7.91,10.69,10.75,5.92,30.76-6.62,39.27s-29.47,7.6-43.71,2.39"/><path class="cls-4" d="M1961.17,1684.52c28.39-15.78,65-10.09,89.77,9.91a104.23,104.23,0,0,1,28.16,36.17,117.31,117.31,0,0,1,7.89,21.8c2,7.87,3.88,16.57,2.05,24.65-1.92,8.44-8.5,13.31-15.59,17.45s-14.19,8.34-21,12.92a312.93,312.93,0,0,0-73,67.95,204,204,0,0,0-14.56,20.63c-4.16,7-7.51,14.74-8,23-.72,12.89,7.15,26.69,20.85,28.11,12.44,1.3,23.73-6.16,35.62-8.37,5.53-1,11.19-.38,15.14,4,5,5.6,3.57,13.73.66,20s-7.55,11.56-12.53,16.43a133,133,0,0,1-14.41,12.21c-20.2,14.75-43.93,23.59-68.06,29.48-25.63,6.26-51.89,9.46-78,12.84-25.93,3.35-52,6.74-77.33,13.36-24,6.27-47.53,15.67-67.38,30.81a143,143,0,0,0-13.86,12.06,1.5,1.5,0,0,0,2.12,2.12c18.18-18,41-30,65.21-37.82,25.17-8.14,51.45-12.22,77.6-15.74,26.59-3.58,53.33-6.45,79.63-11.86,24.76-5.09,49.43-12.57,71.18-25.73a139.14,139.14,0,0,0,29.24-23.48c8.42-8.92,18.21-25.6,8.07-36.79-8.62-9.5-22.16-4-32.27-.5-6,2.07-12.27,4.27-18.69,4.11a19,19,0,0,1-16.12-9.77c-8.89-15.18.17-32.07,9.09-44.85a304.79,304.79,0,0,1,32.75-39.31,309.54,309.54,0,0,1,38.74-33.4q10.23-7.44,21-14c6.79-4.13,14.48-7.56,20.19-13.2,11.82-11.69,7.07-30.71,2.64-44.69a114.89,114.89,0,0,0-22.39-40.51,92.87,92.87,0,0,0-37.48-26.43,86.45,86.45,0,0,0-47.12-4,74.55,74.55,0,0,0-21.33,7.88c-1.69.94-.18,3.53,1.51,2.59Z"/><path class="cls-4" d="M2124.44,1911.67c.58-25-24-45.41-48.89-47.15s-48.83,11-67.8,27.28c-8.45,7.25-16.68,16.16-17.91,27.22s8.25,23.56,19.14,21.26c-9.67,1.71-19.78,3.4-29.17.51s-17.69-11.9-16.25-21.62c.77-5.18,4-9.59,7.4-13.62a187.8,187.8,0,0,1,75.41-54.52c23.32-9.16,51.61-13,72.05,1.53s22.09,52.47-1.39,61.23"/><path class="cls-4" d="M1992.61,1841.6h3.84a1.5,1.5,0,1,0,0-3h-3.84a1.5,1.5,0,0,0,0,3Z"/><path class="cls-4" d="M1995.07,1842l-41.35,46.85c-12.79,14.49-25.92,36.42-13.46,51.19,7.39,8.77,20.52,9.74,31.89,8.24s23-4.76,34.1-2,21,14.9,16.3,25.35c.07-6.57,7.14-11.1,8.38-17.55,1.84-9.59-9.81-16.38-19.58-16.67s-20.18,2.45-28.92-1.91c-9.21-4.6-13.33-16-12.43-26.28s5.82-19.66,10.63-28.76l17.06-32.23"/><path class="cls-20" d="M1855.76,2078.8c24.84,44.7,6.55,102.21-24.83,142.6s-74.27,70.4-107.44,109.34-56.44,93.35-37.87,141c3.54,9.06,10.7,18.82,20.39,17.89,4.31-.41,8.12-3,11.4-5.79,25.55-22,28.23-60.11,44.17-89.82,13-24.32,34.79-42.53,53.57-62.74s35.68-45.13,34.93-72.72a188.85,188.85,0,0,1-33.5,21.21c-1.43-11.23,8.6-20.15,16.82-27.93,45.34-42.93,57.28-117.07,27.71-172.05"/><path class="cls-7" d="M1363.56,2615.15c-5.67-5.79-4-16,1.38-22s13.26-9.12,20.79-12.11a562.1,562.1,0,0,0,123.11-67.83c24.6-17.9,48.5-38.79,60.77-66.63,2.89,10.49-2.45,21.31-7.64,30.88q-14.91,27.55-29.83,55.11c-5.21,9.63-10.5,19.38-18,27.36-36.51,38.91-107.25,21.38-146.52,57.49"/><path class="cls-7" d="M1440.16,2704.9c-5.28-11.24-3.07-24.71,2-36.07,4-9,10-17.52,18.54-22.36,8.94-5,19.61-5.55,29.78-6.88a172.61,172.61,0,0,0,94.39-44.31c4.31,17.2-8.91,33.77-22.85,44.72s-30.45,20.71-37.1,37.15c-.94,2.33-1.64,5-.54,7.28.87,1.77,2.7,2.94,3.49,4.74,1.31,3-.75,6.36-2.85,8.88a77.68,77.68,0,0,1-37.3,24.42c-3.41,1-7.71,1.53-10-1.22-1.93-2.35-1.28-5.85-2.18-8.76-1.83-5.93-9.38-7.81-15.56-7.29s-12.63,2.4-18.42.19-9-11.35-3.62-14.46"/><path class="cls-13" d="M-8.47,3354c23.66-14,54.93,1,72.12,22.49s26.19,48.53,43,70.26c11.86,15.29,27.46,27.73,37.18,44.46s11.63,40.66-2.87,53.47c-10.48,9.26-25.84,9.81-38.77,15.12S78,3581.61,87,3592.33c-13.18,6.55-28.72-5.19-34.92-18.55s-7.48-28.85-15.39-41.26c-11.5-18-34.35-25.6-47.88-42.15-14.36-17.58-15.91-42.11-15.76-64.81.19-27.1,5.8-59.95,31.1-69.68"/><path class="cls-14" d="M2121.4,2258.78a99,99,0,0,0-8.37-54.09c1.52-5.9,10.69-5.21,15-1s6.71,10.53,11.88,13.75c3.56,2.22,8,2.69,11.49,5.09,9.54,6.63,5.29,22.06,11.06,32.14,3.91,6.82,11.75,10.13,18,14.94s11.11,13.87,6.52,20.25L2158.52,2272c-5-3.15-10.59-6.44-16.42-5.48-8.3,1.35-12.68,10.21-17,17.43s-12.72,14.5-20.19,10.63a53.47,53.47,0,0,1,20.14-48.82"/><path class="cls-17" d="M2468.22,2093.4c1.81-24.19-23.59-46.32-47.3-41.22,6.09,15.41,12.26,31.15,13.22,47.69s-4.15,34.33-17.1,44.66-34.45,10.18-44.51-3c-1.93-2.52-3.63-5.58-6.63-6.59s-7.08,2.35-5.22,4.92a27.57,27.57,0,0,1,16.05,23.15c.42,7.44-2.24,14.68-5.09,21.57A334.8,334.8,0,0,1,2327.5,2261c-9.23,12-19.91,25.59-17.15,40.46,3.78,20.3,29.53,27.63,50.08,25.67,4.48-9.08-4.41-18.61-8.42-27.9-4.91-11.39-2.27-24.55,1.65-36.31,23.94-71.78,155.58-150.91,103.37-229-49-73.17-138.19-10.62-198.88,2.68a107,107,0,0,1-65.17-6.39c-6.35-2.77-13-6.25-19.83-4.92s-12,10.64-6.87,15.33"/><path class="cls-20" d="M2378.89,2110.64a64.63,64.63,0,0,1-45.18-43.76c-1-3.38-1.6-7.31.43-10.19,1.48-2.11,4.05-3.14,6.5-3.93,32.86-10.54,74,8.68,81.85,42.29,1.33,5.72,1.67,12-1.08,17.2-4.29,8.08-15,10.94-23.92,9s-16.53-7.67-23.81-13.21"/></g><g id="Layer_2" data-name="Layer 2"><image width="1080" height="1195" transform="translate(2305.09 5019.62) scale(0.24)" xlink:href="../../../../Official%20Docs/Shabang/ShabangSlug-Favicon.png"/></g></g></svg>