<svg id="Layer_1" data-name="Layer 1" xmlns="http://www.w3.org/2000/svg" xmlns:xlink="http://www.w3.org/1999/xlink" viewBox="0 0 512 512"><defs><style>.cls-1{fill:#444f60;stroke:#e2e6e7;stroke-width:9px;}.cls-1,.cls-3{stroke-miterlimit:10;}.cls-2{fill:#eaeaea;}.cls-3,.cls-4{stroke:#f2f4fa;}.cls-3{stroke-width:3.96px;fill:url(#radial-gradient);}.cls-4{fill:none;stroke-linecap:round;stroke-linejoin:round;stroke-width:27px;}</style><radialGradient id="radial-gradient" cx="256" cy="258.4" r="164.82" gradientTransform="matrix(1, 0, 0, -1, 0, 514)" gradientUnits="userSpaceOnUse"><stop offset="0.2" stop-color="#3e7e96"/><stop offset="0.49" stop-color="#387891"/><stop offset="0.99" stop-color="#2a5775"/></radialGradient></defs><title>Artboard 1</title><g id="Layer_2" data-name="Layer 2"><circle class="cls-1" cx="256" cy="255.6" r="233.49"/><path class="cls-2" d="M256,259.75c5.35,0,5.35-8.3,0-8.3S250.65,259.75,256,259.75Z"/><path class="cls-2" d="M251.85,253.82v3.56a3.09,3.09,0,0,0,.36,1.66,3.59,3.59,0,0,0,2.2,2.19,3.07,3.07,0,0,0,1.66.37l1.09-.15a4.24,4.24,0,0,0,1.85-1.06l.64-.85a4.19,4.19,0,0,0,.57-2.1v-3.55a3.09,3.09,0,0,0-.37-1.66,3.55,3.55,0,0,0-2.19-2.19,3,3,0,0,0-1.66-.37l-1.1.15a4.16,4.16,0,0,0-1.84,1.06l-.65.85A4.17,4.17,0,0,0,251.85,253.82Z"/></g><g id="Layer_5" data-name="Layer 5"><circle class="cls-3" cx="256" cy="255.6" r="164.82"/></g><g id="Layer_6" data-name="Layer 6"><polyline class="cls-4" points="178.29 259.9 232.83 312.89 333.71 198.31"/></g></svg>